<svg id="Group_281165" data-name="Group 281165" xmlns="http://www.w3.org/2000/svg" xmlns:xlink="http://www.w3.org/1999/xlink" width="209.779" height="53" viewBox="0 0 209.779 53">
  <defs>
    <clipPath id="clip-path">
      <rect id="Rectangle_82715" data-name="Rectangle 82715" width="209.779" height="53" fill="none"/>
    </clipPath>
  </defs>
  <g id="Group_281164" data-name="Group 281164" clip-path="url(#clip-path)">
    <path id="Path_188104" data-name="Path 188104" d="M108.6,70v3.564h-1.67V63.959H110.6a3.716,3.716,0,0,1,2.557.839,2.82,2.82,0,0,1,.947,2.22,2.727,2.727,0,0,1-.927,2.2,3.9,3.9,0,0,1-2.6.786Zm0-1.346H110.6a1.977,1.977,0,0,0,1.359-.419,1.542,1.542,0,0,0,.468-1.211,1.661,1.661,0,0,0-.475-1.244,1.83,1.83,0,0,0-1.307-.478H108.6Z" transform="translate(-41.636 -24.904)" fill="#221f1f"/>
    <path id="Path_188105" data-name="Path 188105" d="M120.411,71.421a4.213,4.213,0,0,1,.416-1.891,3.042,3.042,0,0,1,1.168-1.293,3.294,3.294,0,0,1,1.729-.452,3.118,3.118,0,0,1,2.346.931,3.658,3.658,0,0,1,.974,2.468l.006.376a4.257,4.257,0,0,1-.405,1.887,3,3,0,0,1-1.162,1.287,3.307,3.307,0,0,1-1.745.456,3.1,3.1,0,0,1-2.419-1.006,3.856,3.856,0,0,1-.907-2.682Zm1.6.139a2.878,2.878,0,0,0,.456,1.726,1.481,1.481,0,0,0,1.267.623A1.464,1.464,0,0,0,125,73.276a3.181,3.181,0,0,0,.452-1.854,2.841,2.841,0,0,0-.465-1.716,1.487,1.487,0,0,0-1.264-.633,1.471,1.471,0,0,0-1.247.623,3.115,3.115,0,0,0-.462,1.864" transform="translate(-46.886 -26.394)" fill="#221f1f"/>
    <path id="Path_188106" data-name="Path 188106" d="M139.614,72.931,140.749,68h1.564l-1.947,7.14h-1.32l-1.531-4.9-1.505,4.9h-1.32L132.738,68H134.3l1.155,4.876L136.921,68h1.207Z" transform="translate(-51.685 -26.479)" fill="#221f1f"/>
    <path id="Path_188107" data-name="Path 188107" d="M153.367,75.189a3.318,3.318,0,0,1-2.471-.96,3.48,3.48,0,0,1-.947-2.557v-.2a4.281,4.281,0,0,1,.412-1.911,3.135,3.135,0,0,1,1.158-1.31,3.06,3.06,0,0,1,1.663-.469,2.8,2.8,0,0,1,2.254.931,3.935,3.935,0,0,1,.8,2.633V72h-4.666a2.14,2.14,0,0,0,.59,1.4,1.773,1.773,0,0,0,1.3.515,2.172,2.172,0,0,0,1.795-.891l.865.825a2.894,2.894,0,0,1-1.145.993,3.583,3.583,0,0,1-1.607.353m-.192-6.117a1.349,1.349,0,0,0-1.066.462,2.4,2.4,0,0,0-.518,1.287h3.056V70.7a1.951,1.951,0,0,0-.429-1.218,1.339,1.339,0,0,0-1.043-.412" transform="translate(-58.387 -26.394)" fill="#221f1f"/>
    <path id="Path_188108" data-name="Path 188108" d="M166.232,69.382a4.016,4.016,0,0,0-.653-.053,1.471,1.471,0,0,0-1.485.844v4.883h-1.6v-7.14h1.532l.039.8a1.807,1.807,0,0,1,1.61-.931,1.5,1.5,0,0,1,.568.093Z" transform="translate(-63.27 -26.394)" fill="#221f1f"/>
    <path id="Path_188109" data-name="Path 188109" d="M173.262,75.189a3.318,3.318,0,0,1-2.471-.96,3.48,3.48,0,0,1-.947-2.557v-.2a4.28,4.28,0,0,1,.412-1.911,3.135,3.135,0,0,1,1.158-1.31,3.06,3.06,0,0,1,1.663-.469,2.8,2.8,0,0,1,2.254.931,3.935,3.935,0,0,1,.8,2.633V72h-4.666a2.14,2.14,0,0,0,.59,1.4,1.773,1.773,0,0,0,1.3.515,2.172,2.172,0,0,0,1.795-.891l.865.825a2.894,2.894,0,0,1-1.145.993,3.583,3.583,0,0,1-1.607.353m-.192-6.117a1.349,1.349,0,0,0-1.066.462,2.4,2.4,0,0,0-.518,1.287h3.056V70.7a1.951,1.951,0,0,0-.429-1.218,1.339,1.339,0,0,0-1.043-.412" transform="translate(-66.134 -26.394)" fill="#221f1f"/>
    <path id="Path_188110" data-name="Path 188110" d="M181.9,69.608a4.25,4.25,0,0,1,.765-2.65,2.455,2.455,0,0,1,2.053-1,2.331,2.331,0,0,1,1.834.792V63.095h1.6V73.231H186.7l-.079-.739a2.365,2.365,0,0,1-1.921.871,2.439,2.439,0,0,1-2.029-1.009,4.4,4.4,0,0,1-.775-2.745m1.6.139a2.975,2.975,0,0,0,.419,1.7,1.361,1.361,0,0,0,1.191.61,1.513,1.513,0,0,0,1.439-.877V68.13a1.49,1.49,0,0,0-1.425-.858,1.371,1.371,0,0,0-1.2.617,3.314,3.314,0,0,0-.423,1.858" transform="translate(-70.828 -24.568)" fill="#221f1f"/>
    <path id="Path_188111" data-name="Path 188111" d="M207.1,69.734a4.289,4.289,0,0,1-.743,2.646,2.418,2.418,0,0,1-2.043.983,2.326,2.326,0,0,1-1.953-.9l-.079.772h-1.452V63.095h1.6v3.682a2.322,2.322,0,0,1,1.867-.818,2.446,2.446,0,0,1,2.052.97,4.356,4.356,0,0,1,.746,2.712Zm-1.6-.139a3.03,3.03,0,0,0-.409-1.742,1.362,1.362,0,0,0-1.188-.581,1.489,1.489,0,0,0-1.465.91v2.944a1.5,1.5,0,0,0,1.478.93,1.352,1.352,0,0,0,1.162-.561,2.933,2.933,0,0,0,.422-1.7Z" transform="translate(-78.201 -24.568)" fill="#221f1f"/>
    <path id="Path_188112" data-name="Path 188112" d="M215.428,72.845,216.879,68h1.709l-2.838,8.223a2.306,2.306,0,0,1-2.217,1.8,2.85,2.85,0,0,1-.772-.12V76.66l.3.02a1.559,1.559,0,0,0,.914-.221,1.467,1.467,0,0,0,.485-.741l.231-.614L212.188,68h1.729Z" transform="translate(-82.622 -26.479)" fill="#221f1f"/>
    <path id="Path_188113" data-name="Path 188113" d="M236.247,65.306h-3v8.262h-1.657V65.306h-2.969V63.96h7.622Z" transform="translate(-89.022 -24.905)" fill="#17a44a"/>
    <path id="Path_188114" data-name="Path 188114" d="M246.172,69.382a4.017,4.017,0,0,0-.653-.053,1.471,1.471,0,0,0-1.485.844v4.883h-1.6v-7.14h1.532l.039.8a1.807,1.807,0,0,1,1.61-.931,1.5,1.5,0,0,1,.568.093Z" transform="translate(-94.397 -26.394)" fill="#17a44a"/>
    <path id="Path_188115" data-name="Path 188115" d="M250.446,64.417a.849.849,0,0,1,.234-.613.883.883,0,0,1,.67-.244.894.894,0,0,1,.673.244.844.844,0,0,1,.238.613.824.824,0,0,1-.238.6.9.9,0,0,1-.673.241.888.888,0,0,1-.67-.241.829.829,0,0,1-.234-.6m1.7,9h-1.6V66.272h1.6Z" transform="translate(-97.519 -24.749)" fill="#17a44a"/>
    <path id="Path_188116" data-name="Path 188116" d="M262.563,71.56a4.253,4.253,0,0,1-.753,2.643,2.613,2.613,0,0,1-3.9.215V77.8h-1.6V67.917h1.478l.066.726a2.357,2.357,0,0,1,1.92-.858,2.434,2.434,0,0,1,2.049.973,4.368,4.368,0,0,1,.743,2.7Zm-1.6-.139a2.975,2.975,0,0,0-.426-1.7,1.383,1.383,0,0,0-1.218-.627,1.476,1.476,0,0,0-1.412.812v3.168a1.491,1.491,0,0,0,1.426.831,1.383,1.383,0,0,0,1.2-.617,3.284,3.284,0,0,0,.432-1.871" transform="translate(-99.801 -26.394)" fill="#17a44a"/>
    <rect id="Rectangle_82714" data-name="Rectangle 82714" width="1.603" height="10.136" transform="translate(164.356 38.527)" fill="#17a44a"/>
    <path id="Path_188117" data-name="Path 188117" d="M277.839,75.189a3.318,3.318,0,0,1-2.471-.96,3.48,3.48,0,0,1-.947-2.557v-.2a4.281,4.281,0,0,1,.412-1.911,3.135,3.135,0,0,1,1.158-1.31,3.06,3.06,0,0,1,1.663-.469,2.8,2.8,0,0,1,2.254.931,3.935,3.935,0,0,1,.8,2.633V72h-4.666a2.143,2.143,0,0,0,.59,1.4,1.773,1.773,0,0,0,1.3.515,2.172,2.172,0,0,0,1.795-.891l.865.825a2.894,2.894,0,0,1-1.145.993,3.583,3.583,0,0,1-1.607.353m-.192-6.117a1.347,1.347,0,0,0-1.065.462,2.391,2.391,0,0,0-.519,1.287h3.056V70.7a1.951,1.951,0,0,0-.429-1.218,1.339,1.339,0,0,0-1.043-.412" transform="translate(-106.854 -26.394)" fill="#17a44a"/>
    <path id="Path_188118" data-name="Path 188118" d="M294.359,70.356a3.468,3.468,0,0,1-1.135,2.4,3.869,3.869,0,0,1-2.634.862,3.745,3.745,0,0,1-2.023-.545,3.575,3.575,0,0,1-1.349-1.547,5.568,5.568,0,0,1-.5-2.33v-.9a5.625,5.625,0,0,1,.482-2.4,3.632,3.632,0,0,1,1.382-1.6,3.858,3.858,0,0,1,2.082-.561,3.714,3.714,0,0,1,2.56.862,3.6,3.6,0,0,1,1.128,2.439H292.7a2.374,2.374,0,0,0-.6-1.495,2,2,0,0,0-1.422-.459,1.95,1.95,0,0,0-1.673.8,3.98,3.98,0,0,0-.6,2.335v.852a4.22,4.22,0,0,0,.557,2.378,1.851,1.851,0,0,0,1.633.819,2.16,2.16,0,0,0,1.479-.442,2.308,2.308,0,0,0,.627-1.472Z" transform="translate(-111.645 -24.82)" fill="#bb2227"/>
    <path id="Path_188119" data-name="Path 188119" d="M303.664,72.845,305.115,68h1.709l-2.838,8.223a2.306,2.306,0,0,1-2.217,1.8,2.85,2.85,0,0,1-.772-.12V76.66l.3.02a1.559,1.559,0,0,0,.914-.221,1.467,1.467,0,0,0,.485-.741l.231-.614L300.424,68h1.729Z" transform="translate(-116.979 -26.479)" fill="#bb2227"/>
    <path id="Path_188120" data-name="Path 188120" d="M318.9,69.734a4.289,4.289,0,0,1-.743,2.646,2.418,2.418,0,0,1-2.043.983,2.326,2.326,0,0,1-1.953-.9l-.079.772h-1.452V63.095h1.6v3.682a2.322,2.322,0,0,1,1.867-.818,2.446,2.446,0,0,1,2.052.97,4.356,4.356,0,0,1,.746,2.712Zm-1.6-.139a3.03,3.03,0,0,0-.409-1.742,1.362,1.362,0,0,0-1.188-.581,1.489,1.489,0,0,0-1.465.91v2.944a1.5,1.5,0,0,0,1.478.93,1.352,1.352,0,0,0,1.162-.561,2.933,2.933,0,0,0,.422-1.7Z" transform="translate(-121.731 -24.568)" fill="#bb2227"/>
    <path id="Path_188121" data-name="Path 188121" d="M328.288,75.189a3.318,3.318,0,0,1-2.471-.96,3.48,3.48,0,0,1-.947-2.557v-.2a4.28,4.28,0,0,1,.412-1.911,3.135,3.135,0,0,1,1.158-1.31,3.06,3.06,0,0,1,1.663-.469,2.8,2.8,0,0,1,2.254.931,3.935,3.935,0,0,1,.8,2.633V72h-4.666a2.143,2.143,0,0,0,.59,1.4,1.773,1.773,0,0,0,1.3.515,2.172,2.172,0,0,0,1.795-.891l.865.825a2.894,2.894,0,0,1-1.145.993,3.583,3.583,0,0,1-1.607.353m-.192-6.117a1.347,1.347,0,0,0-1.065.462,2.391,2.391,0,0,0-.519,1.287h3.056V70.7a1.951,1.951,0,0,0-.429-1.218,1.339,1.339,0,0,0-1.043-.412" transform="translate(-126.498 -26.394)" fill="#bb2227"/>
    <path id="Path_188122" data-name="Path 188122" d="M341.152,69.382a4.016,4.016,0,0,0-.653-.053,1.471,1.471,0,0,0-1.485.844v4.883h-1.6v-7.14h1.532l.039.8a1.807,1.807,0,0,1,1.61-.931,1.5,1.5,0,0,1,.568.093Z" transform="translate(-131.381 -26.394)" fill="#bb2227"/>
    <path id="Path_188123" data-name="Path 188123" d="M123.094,2.511H115.61V23.283h-3.054V2.511h-7.468V0h18.006Z" transform="translate(-40.919 0)"/>
    <path id="Path_188124" data-name="Path 188124" d="M145.872,12.245a8.887,8.887,0,0,0-1.456-.112,3.9,3.9,0,0,0-3.95,2.479V26.893h-2.959V9.59h2.879l.048,2a4.609,4.609,0,0,1,4.127-2.319,3.019,3.019,0,0,1,1.311.224Z" transform="translate(-53.543 -3.61)"/>
    <path id="Path_188125" data-name="Path 188125" d="M157.933,15.187l1.791.016a4.816,4.816,0,0,0,2.631-.736,2.636,2.636,0,0,0,1.159-1.919,1.789,1.789,0,0,0-.519-1.671,2.681,2.681,0,0,0-1.863-.6,3.641,3.641,0,0,0-2.087.528,2.407,2.407,0,0,0-1.111,1.567l-3.806.016a4.9,4.9,0,0,1,2.167-3.806,8.116,8.116,0,0,1,4.949-1.407,7.191,7.191,0,0,1,4.605,1.487,4.281,4.281,0,0,1,1.5,3.726q-.16,2.766-3.726,4.221a3.85,3.85,0,0,1,2.015,1.591,4.32,4.32,0,0,1,.575,2.535,5.115,5.115,0,0,1-1.127,3.007,6.487,6.487,0,0,1-2.806,1.959,9.742,9.742,0,0,1-3.758.631,6.841,6.841,0,0,1-4.558-1.527,4.816,4.816,0,0,1-1.663-3.974l3.758.016a2.051,2.051,0,0,0,.727,1.735,3.086,3.086,0,0,0,2.039.631,4.011,4.011,0,0,0,2.455-.688,2.787,2.787,0,0,0,1.208-1.983q.335-2.511-3.038-2.543l-2.015-.016Z" transform="translate(-59.303 -2.793)" fill="#17a44a"/>
    <path id="Path_188126" data-name="Path 188126" d="M192.273,22.3a2.178,2.178,0,0,0-.9-1.863,8.7,8.7,0,0,0-3.151-1.143,14.913,14.913,0,0,1-3.566-1.152,5.066,5.066,0,0,1-1.95-1.6,3.818,3.818,0,0,1-.632-2.207,4.488,4.488,0,0,1,1.8-3.6,7.027,7.027,0,0,1,4.6-1.472,7.232,7.232,0,0,1,4.773,1.519,4.824,4.824,0,0,1,1.831,3.886H192.1a2.672,2.672,0,0,0-1.031-2.1,3.866,3.866,0,0,0-2.6-.879,4.043,4.043,0,0,0-2.526.7,2.214,2.214,0,0,0-.912,1.839,1.793,1.793,0,0,0,.848,1.615,10.415,10.415,0,0,0,3.062,1.039,16.007,16.007,0,0,1,3.59,1.183,5.244,5.244,0,0,1,2.039,1.655,4.067,4.067,0,0,1,.664,2.358,4.428,4.428,0,0,1-1.855,3.718,7.78,7.78,0,0,1-4.814,1.4,8.712,8.712,0,0,1-3.678-.736,5.98,5.98,0,0,1-2.5-2.055,4.951,4.951,0,0,1-.9-2.855h2.958a3.061,3.061,0,0,0,1.191,2.359,4.619,4.619,0,0,0,2.934.871,4.766,4.766,0,0,0,2.695-.68,2.086,2.086,0,0,0,1.015-1.815" transform="translate(-70.664 -3.61)"/>
    <path id="Path_188127" data-name="Path 188127" d="M214.849,15.08v8.2h-4.8V0h9.084a10.5,10.5,0,0,1,4.613.96,7.068,7.068,0,0,1,3.062,2.726,7.6,7.6,0,0,1,1.072,4.022,6.686,6.686,0,0,1-2.343,5.4,9.756,9.756,0,0,1-6.485,1.975Zm0-3.886h4.286a4.208,4.208,0,0,0,2.9-.9,3.256,3.256,0,0,0,1-2.558,3.841,3.841,0,0,0-1.007-2.766,3.763,3.763,0,0,0-2.783-1.088h-4.4Z" transform="translate(-81.79)" fill="#bb2227"/>
    <path id="Path_188128" data-name="Path 188128" d="M253.448,26.892a5.131,5.131,0,0,1-.463-1.551,5.593,5.593,0,0,1-4.366,1.871,6.14,6.14,0,0,1-4.213-1.472,4.729,4.729,0,0,1-1.671-3.71,4.89,4.89,0,0,1,2.039-4.222,10.063,10.063,0,0,1,5.893-1.487h2.127v-.991a2.852,2.852,0,0,0-.615-1.919,2.421,2.421,0,0,0-1.943-.719,2.753,2.753,0,0,0-1.831.559,1.9,1.9,0,0,0-.664,1.535h-4.622A4.644,4.644,0,0,1,244.045,12,6.133,6.133,0,0,1,246.668,10a9.554,9.554,0,0,1,3.806-.728,7.554,7.554,0,0,1,5.077,1.607A5.624,5.624,0,0,1,257.43,15.4v7.5a8.27,8.27,0,0,0,.688,3.726v.272Zm-3.822-3.214a3.985,3.985,0,0,0,1.887-.456A3,3,0,0,0,252.792,22V19.025h-1.727q-3.47,0-3.694,2.4l-.016.272a1.851,1.851,0,0,0,.608,1.423,2.362,2.362,0,0,0,1.663.559" transform="translate(-94.516 -3.61)" fill="#bb2227"/>
    <path id="Path_188129" data-name="Path 188129" d="M281.424,22.112a1.488,1.488,0,0,0-.84-1.335,9.516,9.516,0,0,0-2.695-.872q-6.172-1.3-6.172-5.245a4.754,4.754,0,0,1,1.911-3.846,7.707,7.707,0,0,1,5-1.543,8.3,8.3,0,0,1,5.269,1.551,4.89,4.89,0,0,1,1.975,4.03h-4.621a2.237,2.237,0,0,0-.64-1.64,2.706,2.706,0,0,0-2-.647,2.765,2.765,0,0,0-1.807.528,1.665,1.665,0,0,0-.64,1.343,1.423,1.423,0,0,0,.728,1.239,7.476,7.476,0,0,0,2.454.816,20.131,20.131,0,0,1,2.911.775q3.662,1.344,3.662,4.654a4.514,4.514,0,0,1-2.031,3.83,8.762,8.762,0,0,1-5.245,1.463,9.148,9.148,0,0,1-3.862-.775,6.47,6.47,0,0,1-2.646-2.127,4.939,4.939,0,0,1-.96-2.918h4.382a2.412,2.412,0,0,0,.912,1.887,3.615,3.615,0,0,0,2.271.656,3.345,3.345,0,0,0,2.007-.5,1.567,1.567,0,0,0,.68-1.32" transform="translate(-105.59 -3.61)" fill="#bb2227"/>
    <path id="Path_188130" data-name="Path 188130" d="M309,22.112a1.488,1.488,0,0,0-.84-1.335,9.515,9.515,0,0,0-2.695-.872q-6.172-1.3-6.172-5.245a4.754,4.754,0,0,1,1.911-3.846,7.707,7.707,0,0,1,5-1.543,8.3,8.3,0,0,1,5.269,1.551,4.89,4.89,0,0,1,1.975,4.03h-4.621a2.237,2.237,0,0,0-.64-1.64,2.706,2.706,0,0,0-2-.647,2.765,2.765,0,0,0-1.807.528,1.665,1.665,0,0,0-.64,1.343,1.423,1.423,0,0,0,.728,1.239,7.476,7.476,0,0,0,2.454.816,20.131,20.131,0,0,1,2.911.775Q313.5,18.61,313.5,21.92a4.514,4.514,0,0,1-2.031,3.83,8.762,8.762,0,0,1-5.245,1.463,9.147,9.147,0,0,1-3.862-.775,6.47,6.47,0,0,1-2.646-2.127,4.939,4.939,0,0,1-.96-2.918h4.382a2.412,2.412,0,0,0,.912,1.887,3.615,3.615,0,0,0,2.271.656,3.345,3.345,0,0,0,2.006-.5,1.567,1.567,0,0,0,.68-1.32" transform="translate(-116.328 -3.61)" fill="#bb2227"/>
    <path id="Path_188131" data-name="Path 188131" d="M57.389,18.1A15.3,15.3,0,0,1,51.845,30.47q-5.538,4.634-15.2,4.636H28.5V47.464a5.573,5.573,0,0,1-5.457,5.593,5.408,5.408,0,0,1-5.358-5.407V26.873H39.5l3.648,3.648a.8.8,0,0,0,1.37-.567V26.873H44.7A2.968,2.968,0,0,0,47.666,23.9V12.965A2.968,2.968,0,0,0,44.7,10H5.077A5.027,5.027,0,0,1,.013,5.434,4.924,4.924,0,0,1,4.925.148H36.857a26.69,26.69,0,0,1,7.368.965A21.62,21.62,0,0,1,47.6,2.382a16.886,16.886,0,0,1,7.232,6.361A17.393,17.393,0,0,1,57.389,18.1" transform="translate(0 -0.058)" fill="#d1d2d3"/>
    <path id="Path_188132" data-name="Path 188132" d="M60.776,28.213a2.917,2.917,0,1,1,2.918,2.918,2.92,2.92,0,0,1-2.918-2.918" transform="translate(-23.665 -9.849)" fill="#17a44a"/>
    <path id="Path_188133" data-name="Path 188133" d="M44.941,28.213a2.917,2.917,0,1,1,2.918,2.918,2.92,2.92,0,0,1-2.918-2.918" transform="translate(-17.499 -9.849)" fill="#221f1f"/>
    <path id="Path_188134" data-name="Path 188134" d="M29.106,28.213a2.917,2.917,0,1,1,2.918,2.918,2.92,2.92,0,0,1-2.918-2.918" transform="translate(-11.333 -9.849)" fill="#bb2227"/>
  </g>
</svg>
