<svg id="anonymous_perfil" xmlns="http://www.w3.org/2000/svg" xmlns:xlink="http://www.w3.org/1999/xlink" width="27.166" height="21.746" viewBox="0 0 27.166 21.746">
  <defs>
    <clipPath id="clip-path">
      <rect id="Rectangle_1054" data-name="Rectangle 1054" width="27.166" height="21.746" fill="#b11928"/>
    </clipPath>
  </defs>
  <g id="Group_1330" data-name="Group 1330">
    <g id="Group_1204" data-name="Group 1204" clip-path="url(#clip-path)">
      <path id="Path_3824" data-name="Path 3824" d="M13.556,10.856H.839c-.517,0-.814-.224-.837-.627A.644.644,0,0,1,.68,9.518c.627-.011,1.254-.015,1.88,0,.236.006.328-.074.387-.3.588-2.248,1.189-4.492,1.784-6.738A3.041,3.041,0,0,1,7.623.006,3.587,3.587,0,0,1,8.869.2c1.433.463,2.855.96,4.277,1.455a1.251,1.251,0,0,0,.866,0Q16.16.916,18.316.192a3.046,3.046,0,0,1,4.074,2.159q.931,3.424,1.824,6.859a.343.343,0,0,0,.411.31c.584-.017,1.169-.008,1.753,0,.505,0,.79.249.787.672s-.3.669-.8.67q-6.407,0-12.813,0m.018-1.417h8.8c.469,0,.467,0,.343-.462q-.821-3.074-1.64-6.149a1.679,1.679,0,0,0-2.4-1.283c-1.4.477-2.794.944-4.184,1.438a2.662,2.662,0,0,1-1.862-.016c-1.4-.5-2.807-.973-4.214-1.447a1.65,1.65,0,0,0-2.3,1.23Q5.273,5.884,4.439,9.021c-.111.414-.107.418.338.418h8.8" transform="translate(0 0.001)" fill="#b11928"/>
      <path id="Path_3825" data-name="Path 3825" d="M36.468,153.1a4.751,4.751,0,1,1,4.812-5.755c.056.27.156.337.415.331.732-.017,1.466-.013,2.2,0,.207,0,.293-.058.337-.269a4.753,4.753,0,1,1,.012,1.945c-.055-.27-.157-.337-.415-.33-.722.017-1.445.015-2.167,0-.233,0-.326.061-.375.3a4.754,4.754,0,0,1-4.818,3.778m.159-1.377a3.376,3.376,0,1,0-3.36-3.391,3.378,3.378,0,0,0,3.36,3.391m8.88-3.376a3.374,3.374,0,1,0,3.374-3.375,3.35,3.35,0,0,0-3.374,3.375" transform="translate(-29.179 -131.36)" fill="#b11928"/>
    </g>
  </g>
</svg>
