<svg xmlns="http://www.w3.org/2000/svg" width="19.567" height="19.501" viewBox="0 0 19.567 19.501">
  <path id="Path_192214" data-name="Path 192214" d="M6.851,17.846V11.838H4.989V9.078H6.851V7.888c0-3.075,1.391-4.5,4.41-4.5a10.223,10.223,0,0,1,1.105.078,6.535,6.535,0,0,1,.859.147v2.5q-.245-.023-.492-.027-.276-.007-.552-.007a2.781,2.781,0,0,0-1.261.233,1.269,1.269,0,0,0-.511.468A2.509,2.509,0,0,0,10.128,8.1v.976h2.95l-.291,1.583-.216,1.177H10.128v6.207a9.029,9.029,0,1,0-3.277-.2Z" transform="translate(0.75 0.706)" fill="none" stroke="#282929" stroke-linejoin="round" stroke-width="1.5"/>
</svg>
