<svg id="Group_281905" data-name="Group 281905" xmlns="http://www.w3.org/2000/svg" width="20.349" height="20.349" viewBox="0 0 20.349 20.349">
  <path id="Path_192221" data-name="Path 192221" d="M9.179,12.087V7H6.636V8.272H7.908v3.815H6v1.272h5.087V12.087Z" transform="translate(1.631 1.903)"/>
  <path id="Path_192222" data-name="Path 192222" d="M8.2,4a.954.954,0,1,0,.954.954A.954.954,0,0,0,8.2,4Z" transform="translate(1.97 1.087)"/>
  <path id="Path_192223" data-name="Path 192223" d="M9.9,18.805a8.9,8.9,0,1,1,8.9-8.9,8.9,8.9,0,0,1-8.9,8.9Zm0-16.533A7.631,7.631,0,1,0,17.533,9.9,7.631,7.631,0,0,0,9.9,2.272Z" transform="translate(0.272 0.272)"/>
  <path id="_Transparent_Rectangle_" d="M0,0H20.349V20.349H0Z" fill="none"/>
</svg>
