<svg xmlns="http://www.w3.org/2000/svg" width="17.227" height="17.227" viewBox="0 0 17.227 17.227">
  <path id="Path_192216" data-name="Path 192216" d="M5.046.06a6.284,6.284,0,0,0-2.089.4,4.216,4.216,0,0,0-1.524,1A4.219,4.219,0,0,0,.442,2.987a6.328,6.328,0,0,0-.4,2.092C.006,6,0,6.291,0,8.63s.015,2.632.059,3.551a6.3,6.3,0,0,0,.4,2.089,4.219,4.219,0,0,0,1,1.524,4.214,4.214,0,0,0,1.528.991,6.322,6.322,0,0,0,2.091.4c.917.04,1.212.05,3.55.045s2.633-.015,3.551-.058a6.3,6.3,0,0,0,2.089-.4,4.4,4.4,0,0,0,2.514-2.524,6.3,6.3,0,0,0,.4-2.09c.04-.919.05-1.213.045-3.552s-.015-2.632-.059-3.55a6.29,6.29,0,0,0-.4-2.09,4.229,4.229,0,0,0-1-1.524,4.2,4.2,0,0,0-1.527-.99,6.3,6.3,0,0,0-2.091-.4C11.231.007,10.936,0,8.6,0S5.965.015,5.046.06m.1,15.571a4.781,4.781,0,0,1-1.6-.293,2.682,2.682,0,0,1-.992-.642,2.652,2.652,0,0,1-.646-.989,4.771,4.771,0,0,1-.3-1.6c-.043-.908-.052-1.18-.057-3.48s0-2.572.044-3.48a4.77,4.77,0,0,1,.293-1.6,2.667,2.667,0,0,1,.642-.992,2.659,2.659,0,0,1,.989-.646,4.771,4.771,0,0,1,1.6-.3C6.028,1.568,6.3,1.56,8.6,1.555s2.572,0,3.481.044a4.762,4.762,0,0,1,1.6.293,2.663,2.663,0,0,1,.992.642,2.657,2.657,0,0,1,.646.99,4.746,4.746,0,0,1,.3,1.6c.043.908.053,1.181.057,3.48s0,2.572-.044,3.48a4.783,4.783,0,0,1-.293,1.6,2.853,2.853,0,0,1-1.632,1.638,4.771,4.771,0,0,1-1.6.3c-.908.043-1.181.052-3.481.057s-2.571,0-3.48-.044M12.168,4.01A1.034,1.034,0,1,0,13.2,2.974,1.034,1.034,0,0,0,12.168,4.01M4.191,8.622A4.423,4.423,0,1,0,8.6,4.19,4.422,4.422,0,0,0,4.191,8.622m1.551,0a2.871,2.871,0,1,1,2.877,2.865A2.871,2.871,0,0,1,5.742,8.619"/>
</svg>
