<svg id="Group_281908" data-name="Group 281908" xmlns="http://www.w3.org/2000/svg" width="20.68" height="20.68" viewBox="0 0 20.68 20.68">
  <path id="Path_192224" data-name="Path 192224" d="M17.65,3H2.281A1.281,1.281,0,0,0,1,4.281V14.527a1.281,1.281,0,0,0,1.281,1.281H17.65a1.281,1.281,0,0,0,1.281-1.281V4.281A1.281,1.281,0,0,0,17.65,3ZM16.241,4.281,9.966,8.623,3.69,4.281ZM2.281,14.527V4.864L9.6,9.929a.64.64,0,0,0,.73,0l7.32-5.066v9.664Z" transform="translate(0.374 0.936)" stroke="#000" stroke-width="0.01"/>
  <path id="_Transparent_Rectangle_" d="M0,0H20.68V20.68H0Z" fill="none"/>
</svg>
