<svg xmlns="http://www.w3.org/2000/svg" width="18.007" height="18" viewBox="0 0 18.007 18">
  <g id="Group_281890" data-name="Group 281890" transform="translate(0.005)">
    <path id="Path_192212" data-name="Path 192212" d="M17.425,19.5h-.118C3.7,18.718,1.772,7.239,1.5,3.736A2.077,2.077,0,0,1,3.413,1.5H7.227a1.385,1.385,0,0,1,1.288.872L9.567,4.962a1.385,1.385,0,0,1-.3,1.5L7.788,7.945a6.487,6.487,0,0,0,5.248,5.262l1.5-1.488a1.385,1.385,0,0,1,1.5-.284l2.61,1.045a1.385,1.385,0,0,1,.852,1.288v3.655A2.077,2.077,0,0,1,17.425,19.5ZM3.579,2.885a.692.692,0,0,0-.692.692v.055c.318,4.1,2.361,13.791,14.5,14.483a.692.692,0,0,0,.734-.651v-3.7l-2.61-1.045L13.52,14.7l-.332-.042c-6.023-.755-6.84-6.778-6.84-6.84l-.042-.332L8.273,5.495,7.234,2.885Z" transform="translate(-1.501 -1.5)"/>
    <path id="_Transparent_Rectangle_" d="M0,0H18V18H0Z" transform="translate(0.001 0)" fill="none"/>
  </g>
</svg>
