<svg id="Group_281883" data-name="Group 281883" xmlns="http://www.w3.org/2000/svg" width="17.582" height="17.582" viewBox="0 0 17.582 17.582">
  <path id="Path_192204" data-name="Path 192204" d="M8.247,4a2.747,2.747,0,1,0,2.747,2.747A2.747,2.747,0,0,0,8.247,4Zm0,4.4A1.648,1.648,0,1,1,9.9,6.747,1.648,1.648,0,0,1,8.247,8.4Z" transform="translate(0.544 0.395)"/>
  <path id="Path_192205" data-name="Path 192205" d="M9.791,1a8.791,8.791,0,1,0,8.791,8.791A8.791,8.791,0,0,0,9.791,1ZM6.023,16.307v-.864a1.886,1.886,0,0,1,1.884-1.884h3.768a1.886,1.886,0,0,1,1.884,1.884v.864a7.471,7.471,0,0,1-7.535,0ZM14.81,15.4A3.141,3.141,0,0,0,11.675,12.3H7.907A3.141,3.141,0,0,0,4.772,15.4a7.535,7.535,0,1,1,10.037,0Z" transform="translate(-1 -1)"/>
  <path id="_Transparent_Rectangle_" d="M0,0H17.582V17.582H0Z" fill="none"/>
</svg>
