<svg id="Secure_perfile" xmlns="http://www.w3.org/2000/svg" xmlns:xlink="http://www.w3.org/1999/xlink" width="22.905" height="27.486" viewBox="0 0 22.905 27.486">
  <defs>
    <clipPath id="clip-path">
      <rect id="Rectangle_7976" data-name="Rectangle 7976" width="22.905" height="27.486" fill="none"/>
    </clipPath>
  </defs>
  <g id="Group_10679" data-name="Group 10679" clip-path="url(#clip-path)">
    <path id="Path_24617" data-name="Path 24617" d="M19.851,9.162H18.324V6.871a6.871,6.871,0,0,0-13.743,0v2.29H3.054A3.063,3.063,0,0,0,0,12.216V24.432a3.048,3.048,0,0,0,.9,2.153,3.448,3.448,0,0,0,.443.382,3.014,3.014,0,0,0,1.71.519h16.8a3.014,3.014,0,0,0,1.71-.519,2.764,2.764,0,0,0,.458-.382,3.035,3.035,0,0,0,.886-2.153V12.216a3.053,3.053,0,0,0-3.054-3.054M6.108,6.871a5.344,5.344,0,0,1,10.689,0v2.29H6.108Zm15.27,17.56a1.522,1.522,0,0,1-1.527,1.527H3.054a1.531,1.531,0,0,1-1.527-1.527V12.216a1.531,1.531,0,0,1,1.527-1.527h16.8a1.522,1.522,0,0,1,1.527,1.527Z" fill="#1aa54a"/>
    <path id="Path_24618" data-name="Path 24618" d="M11.695,13.856a1.115,1.115,0,0,1-.192-.118.881.881,0,0,1,.162-.2,3.221,3.221,0,1,0-4.633.05.8.8,0,0,0,.064.06c.026.023.073.064.075.081,0,0-.006.029-.105.082a5.24,5.24,0,0,0-3.025,5.14c.015.574.212.767.782.767h4.5v-.076l0,0v.076h4.567c.565,0,.7-.327.712-.6a5.322,5.322,0,0,0-2.909-5.267M7.358,11.328a1.975,1.975,0,0,1,1.97-1.965h0a1.971,1.971,0,0,1,1.964,1.974A2.012,2.012,0,0,1,9.313,13.3a1.972,1.972,0,0,1-1.955-1.974M9.32,18.566v-.076H5.6a.77.77,0,0,1-.29-.024.745.745,0,0,1,.012-.278A3.969,3.969,0,0,1,8.513,14.64a3.824,3.824,0,0,1,.55-.073c.089-.006.174-.008.261-.008a4.048,4.048,0,0,1,4.034,3.792c0,.082-.011.11-.021.119a.191.191,0,0,1-.139.018H9.325v.076Z" transform="translate(2.121 4.272)" fill="#1aa54a"/>
  </g>
</svg>
