<svg xmlns="http://www.w3.org/2000/svg" xmlns:xlink="http://www.w3.org/1999/xlink" width="17.303" height="23.624" viewBox="0 0 17.303 23.624">
  <defs>
    <clipPath id="clip-path">
      <rect id="Rectangle_82717" data-name="Rectangle 82717" width="17.303" height="23.624" transform="translate(0 0)" fill="none"/>
    </clipPath>
  </defs>
  <g id="Group_281173" data-name="Group 281173" transform="translate(0 0)">
    <g id="Group_281172" data-name="Group 281172" transform="translate(0 0)" clip-path="url(#clip-path)">
      <path id="Path_188142" data-name="Path 188142" d="M1.784,36.075H1.047A1.009,1.009,0,0,1,0,35.109V34.8a1.01,1.01,0,0,1,1.048-.966l15.208-.007a1.009,1.009,0,0,1,1.047.967h0V35.1a1.009,1.009,0,0,1-1.047.966h0l-11.467,0a.3.3,0,0,0-.309.285l0,13.384a1.009,1.009,0,0,1-1.048.966l-.29,0a1.009,1.009,0,0,1-1.047-.967l0-13.384a.3.3,0,0,0-.31-.286Z" transform="translate(0 -27.088)" fill="#d1d2d3"/>
      <path id="Path_188143" data-name="Path 188143" d="M34.268,54.661h-.691a.93.93,0,0,0-.889.966h0l0,10.8a.93.93,0,0,0,.888.967h.691a.93.93,0,0,0,.889-.966l0-10.8a.93.93,0,0,0-.889-.967" transform="translate(-26.177 -43.777)" fill="#d1d2d3"/>
      <path id="Path_188144" data-name="Path 188144" d="M56.731,108.435v.283a1.009,1.009,0,0,1-1.048.966H50.564a1.009,1.009,0,0,1-1.047-.967h0v-.283a1.009,1.009,0,0,1,1.048-.966h5.119a1.009,1.009,0,0,1,1.047.967" transform="translate(-39.657 -86.068)" fill="#bb2227"/>
      <path id="Path_188145" data-name="Path 188145" d="M56.737,81.958v.251a1.009,1.009,0,0,1-1.048.966H50.57a1.009,1.009,0,0,1-1.047-.967h0v-.251a1.009,1.009,0,0,1,1.048-.966H55.69a1.009,1.009,0,0,1,1.047.967" transform="translate(-39.662 -64.863)" fill="#17a44a"/>
      <path id="Path_188146" data-name="Path 188146" d="M56.744,55.6v.283a1.009,1.009,0,0,1-1.048.966H50.577a1.009,1.009,0,0,1-1.047-.967h0V55.6a1.009,1.009,0,0,1,1.048-.966H55.7a1.009,1.009,0,0,1,1.047.967" transform="translate(-39.668 -43.751)" fill="#221f1f"/>
      <path id="Path_188147" data-name="Path 188147" d="M9.2,2.31A2.412,2.412,0,0,1,6.7,4.619a2.412,2.412,0,0,1-2.5-2.31A2.412,2.412,0,0,1,6.7,0,2.412,2.412,0,0,1,9.2,2.31Z" transform="translate(-3.364 0)" fill="#d1d2d3"/>
    </g>
  </g>
</svg>
