<svg id="Group_281899" data-name="Group 281899" xmlns="http://www.w3.org/2000/svg" width="21.68" height="21.68" viewBox="0 0 21.68 21.68">
  <path id="Path_192217" data-name="Path 192217" d="M11.485,2a9.485,9.485,0,1,0,9.485,9.485A9.485,9.485,0,0,0,11.485,2Zm8.13,8.807H15.55A16.436,16.436,0,0,0,13.66,3.66a8.13,8.13,0,0,1,5.955,7.148Zm-8.13,8.807a3.387,3.387,0,0,1-.454,0,14.8,14.8,0,0,1-2.256-7.452h5.42a14.8,14.8,0,0,1-2.236,7.452A3.387,3.387,0,0,1,11.485,19.615Zm-2.71-8.807a14.8,14.8,0,0,1,2.236-7.452,4.065,4.065,0,0,1,.908,0,14.8,14.8,0,0,1,2.276,7.452ZM9.29,3.66a16.436,16.436,0,0,0-1.87,7.148H3.355A8.13,8.13,0,0,1,9.31,3.66Zm-5.9,8.5H7.454A16.436,16.436,0,0,0,9.317,19.31a8.13,8.13,0,0,1-5.928-7.148ZM13.66,19.31a16.436,16.436,0,0,0,1.89-7.148h4.065A8.13,8.13,0,0,1,13.66,19.31Z" transform="translate(-0.645 -0.645)"/>
  <path id="_Transparent_Rectangle_" d="M0,0H21.68V21.68H0Z" transform="translate(21.68) rotate(90)" fill="none"/>
</svg>
