<svg id="verify_perfil" xmlns="http://www.w3.org/2000/svg" xmlns:xlink="http://www.w3.org/1999/xlink" width="26.229" height="24.592" viewBox="0 0 26.229 24.592">
  <defs>
    <clipPath id="clip-path">
      <rect id="Rectangle_1056" data-name="Rectangle 1056" width="26.229" height="24.592" fill="#2b386d"/>
    </clipPath>
  </defs>
  <g id="Group_1332" data-name="Group 1332" transform="translate(0 0)">
    <g id="Group_1206" data-name="Group 1206" transform="translate(0 0)" clip-path="url(#clip-path)">
      <path id="Path_3828" data-name="Path 3828" d="M0,7.685A.409.409,0,0,0,.046,7.6,1.878,1.878,0,0,1,1.676,6.11c1.152-.2,2.3-.389,3.458-.569a.412.412,0,0,0,.4-.4c.191-1.2.377-2.411.607-3.608A1.862,1.862,0,0,1,9.073.353c.975.675,1.931,1.379,2.894,2.07.328.235.327.237.666-.006Q14.037,1.411,15.441.4a1.88,1.88,0,0,1,3.024,1.19c.082.409.141.824.206,1.236a.817.817,0,0,1-1.61.287c-.073-.385-.13-.774-.2-1.16-.061-.336-.217-.4-.5-.2Q14.962,2.761,13.56,3.772a1.926,1.926,0,0,1-2.519.006q-1.394-1-2.787-2c-.323-.231-.466-.175-.532.216-.2,1.185-.4,2.372-.6,3.558a1.86,1.86,0,0,1-1.57,1.573c-1.194.2-2.388.4-3.583.6-.354.06-.419.215-.211.506Q2.752,9.618,3.748,11a2,2,0,0,1,0,2.594q-.987,1.372-1.97,2.746c-.231.322-.176.467.214.533,1.177.2,2.355.4,3.532.593a1.867,1.867,0,0,1,1.6,1.6c.2,1.178.393,2.356.594,3.533.068.4.212.453.55.21q1.394-1,2.788-2a1.945,1.945,0,0,1,2.484.006q1.384.992,2.766,1.986c.351.252.493.2.564-.214.2-1.177.4-2.355.594-3.533a1.874,1.874,0,0,1,1.589-1.585q1.792-.3,3.583-.6c.337-.057.4-.216.2-.5-.7-.979-1.407-1.953-2.1-2.935a.813.813,0,0,1,.514-1.318.754.754,0,0,1,.769.305c.761,1.051,1.539,2.09,2.261,3.167a1.85,1.85,0,0,1-1.2,2.855c-1.188.234-2.387.41-3.581.608-.371.061-.389.078-.449.436-.189,1.153-.373,2.308-.574,3.458a1.883,1.883,0,0,1-3.053,1.231l-2.808-2.015c-.3-.216-.342-.215-.652.006-.957.686-1.908,1.381-2.873,2.056a1.884,1.884,0,0,1-2.608-.38,2.686,2.686,0,0,1-.435-1.267c-.173-1.061-.352-2.12-.52-3.182a.377.377,0,0,0-.375-.342c-1.171-.187-2.341-.374-3.509-.579A1.85,1.85,0,0,1,.04,16.971.228.228,0,0,0,0,16.907v-.615a4.155,4.155,0,0,1,.768-1.364c.559-.773,1.106-1.555,1.673-2.322a.448.448,0,0,0,0-.616c-.6-.81-1.173-1.633-1.764-2.446A3.327,3.327,0,0,1,0,8.248V7.685" transform="translate(0 0)" fill="#2b386d"/>
      <path id="Path_3829" data-name="Path 3829" d="M22.311,15.319a2.85,2.85,0,0,1,.221-.3Q28.088,9.455,33.646,3.9a.876.876,0,0,1,.867-.312A.813.813,0,0,1,34.953,4.9a2.784,2.784,0,0,1-.195.2L23.027,16.837a.866.866,0,0,1-1.444,0q-2.344-2.345-4.691-4.688a.9.9,0,0,1-.319-.7.771.771,0,0,1,.448-.7.787.787,0,0,1,.847.069,1.876,1.876,0,0,1,.227.206q2,2,4,4a2.921,2.921,0,0,1,.216.289" transform="translate(-8.916 -1.915)" fill="#2b386d"/>
    </g>
  </g>
</svg>
