<svg id="Group_281902" data-name="Group 281902" xmlns="http://www.w3.org/2000/svg" width="21.027" height="21.027" viewBox="0 0 21.027 21.027">
  <path id="Path_192219" data-name="Path 192219" d="M10.2,1a9.2,9.2,0,1,0,9.2,9.2A9.2,9.2,0,0,0,10.2,1Zm3.286,2.041A7.894,7.894,0,0,1,15.4,4.289l-.271.654H13.485ZM8.477,17.889A7.87,7.87,0,0,1,5.019,4.27L5.905,5.6H8.1L7.116,8.228H4.469l-.909,2.725,1.688,2.531H8.534L9.474,14.9Zm1.723.2c-.134,0-.264-.013-.4-.02l.918-2.753a1.306,1.306,0,0,0-.153-1.144l-.941-1.411a1.312,1.312,0,0,0-1.093-.586H5.951L5.011,10.76l.406-1.217h1.5v1.314H8.228V9l1.929-5.145L8.927,3.4l-.333.888H6.609l-.53-.8a7.75,7.75,0,0,1,6.093-.916V4.943a1.316,1.316,0,0,0,1.314,1.314h1.7a1.305,1.305,0,0,0,.929-.385l.092-.092.185-.447a7.873,7.873,0,0,1,1.234,2.238H14.535a1.309,1.309,0,0,0-1.3,1.094l-.392,2.261A1.308,1.308,0,0,0,13.5,12.3l1.422.962.958,2.4a7.857,7.857,0,0,1-5.68,2.43ZM15.992,12.4l-1.784-1.206-.066-.039.393-2.266h3.431a7.716,7.716,0,0,1-1.146,5.582Z" transform="translate(0.314 0.314)"/>
  <g id="_Transparent_Rectangle_">
    <path id="Path_192220" data-name="Path 192220" d="M0,0H21.027V21.027H0Z" fill="none"/>
  </g>
</svg>
